<?xml version="1.0" encoding="UTF-8"?>
<svg id="Capa_2" data-name="Capa 2" xmlns="http://www.w3.org/2000/svg" xmlns:xlink="http://www.w3.org/1999/xlink" viewBox="0 0 726.63 115.7">
  <defs>
    <style>
      .cls-1 {
        fill: url(#Degradado_sin_nombre_69);
      }
    </style>
    <linearGradient id="Degradado_sin_nombre_69" data-name="Degradado sin nombre 69" x1="0" y1="57.85" x2="115.7" y2="57.85" gradientUnits="userSpaceOnUse">
      <stop offset="0" stop-color="#ff94a6"/>
      <stop offset="1" stop-color="#8b37ed"/>
    </linearGradient>
  </defs>
  <g id="Capa_2-2" data-name="Capa 2">
    <g>
      <g>
        <path d="M222.08,21.98h13.31v77.42h-13.31V21.98Z"/>
        <path d="M338.87,44.08h10.89l1.32,7.48h.88c3.08-4.84,8.69-9.13,18.14-9.13,14.96,0,23.2,9.35,23.2,23.42v33.54h-13.53v-30.57c0-9.13-5.17-14.3-13.42-14.3-9.24,0-13.86,7.48-13.86,15.84v29.03h-13.64v-55.31Z"/>
        <path d="M387.7,23.74h14.74l23.2,52.34h.77l23.2-52.34h14.74l-34.86,75.66h-6.82l-34.97-75.66Z"/>
        <path d="M455.33,72.23c0-16.72,11.55-29.91,28.81-29.91,10.78,0,16.61,5.06,19.9,9.9h.88l1.32-8.14h9.79v37.5c.11,4.07,0,6.71,3.3,6.71.55,0,1.32-.11,2.09-.44h1.1l.11,11.66c-2.2.99-4.4,1.54-6.82,1.54-8.8,0-10.01-4.84-10.67-10.23h-.88c-3.52,5.83-10.78,10.23-20.12,10.23-17.27,0-28.81-12.76-28.81-28.81ZM503.06,71.79c0-9.46-7.48-17.48-17.48-17.48s-17.04,7.04-17.04,17.48,7.59,17.38,17.15,17.38c10.12,0,17.37-8.36,17.37-17.38Z"/>
        <path d="M528.35,44.08h10.89l1.32,7.48h.88c3.08-4.84,8.69-9.13,18.14-9.13,14.96,0,23.2,9.35,23.2,23.42v33.54h-13.53v-30.57c0-9.13-5.17-14.3-13.42-14.3-9.24,0-13.86,7.48-13.86,15.84v29.03h-13.64v-55.31Z"/>
        <path d="M590.7,26.05c0-4.73,3.96-8.36,8.25-8.36,4.51,0,8.47,3.74,8.47,8.36s-3.85,8.25-8.47,8.25-8.25-3.63-8.25-8.25ZM592.13,44.08h13.64v55.31h-13.64v-55.31Z"/>
        <path d="M615.89,21.98h13.31v77.42h-13.31V21.98Z"/>
        <path d="M639.31,21.98h13.31v77.42h-13.31V21.98Z"/>
        <path d="M659.33,72.23c0-16.72,11.55-29.91,28.81-29.91,10.78,0,16.61,5.06,19.9,9.9h.88l1.32-8.14h9.79v37.5c.11,4.07,0,6.71,3.3,6.71.55,0,1.32-.11,2.09-.44h1.1l.11,11.66c-2.2.99-4.4,1.54-6.82,1.54-8.8,0-10.01-4.84-10.67-10.23h-.88c-3.52,5.83-10.78,10.23-20.12,10.23-17.27,0-28.81-12.76-28.81-28.81ZM707.05,71.79c0-9.46-7.48-17.48-17.48-17.48s-17.04,7.04-17.04,17.48,7.59,17.38,17.15,17.38c10.12,0,17.37-8.36,17.37-17.38Z"/>
        <path d="M242.1,72.23c0-16.72,11.55-29.91,28.81-29.91,10.78,0,16.61,5.06,19.9,9.9h.88l1.32-8.14h9.79v37.5c.11,4.07,0,6.71,3.3,6.71.55,0,1.32-.11,2.09-.44h1.1l.11,11.66c-2.2.99-4.4,1.54-6.82,1.54-8.8,0-10.01-4.84-10.67-10.23h-.88c-3.52,5.83-10.78,10.23-20.12,10.23-17.27,0-28.81-12.76-28.81-28.81ZM289.82,71.79c0-9.46-7.48-17.48-17.48-17.48s-17.04,7.04-17.04,17.48,7.59,17.38,17.15,17.38c10.12,0,17.37-8.36,17.37-17.38ZM315.12,44.08h13.64v55.31h-13.64v-55.31ZM311.74,26.08c4.48-2.09,8.1-5.71,10.19-10.19,2.09,4.48,5.71,8.1,10.19,10.19-4.48,2.09-8.1,5.71-10.19,10.19-2.09-4.48-5.71-8.1-10.19-10.19Z"/>
        <path d="M188.21,23.63h-28.81v20.18l-.08-.26v37.5c-.11,4.07,0,6.71-3.3,6.71-.55,0-1.32-.11-2.09-.44h-1.1l-.11,11.66c2.2.99,7.55,1.54,9.97,1.54,8.8,0,10.01-4.84,10.67-10.23v-15.75h14.3c17.93,0,28.92-7.92,28.92-25.84,0-15.07-10.78-25.07-28.37-25.07ZM188.87,62.56h-15.51v-27.05h15.51c8.8,0,13.86,5.83,13.86,13.64s-5.06,13.42-13.86,13.42Z"/>
      </g>
      <path class="cls-1" d="M30.8,57.85c11.88-5.55,21.5-15.17,27.05-27.05,5.55,11.88,15.17,21.5,27.05,27.05-11.88,5.55-21.5,15.17-27.05,27.05-5.55-11.88-15.17-21.5-27.05-27.05ZM115.69,50.67C89.28,47.41,68.29,26.42,65.03,0c26.42,3.26,47.41,24.25,50.67,50.67ZM50.67,0C47.41,26.42,26.42,47.41,0,50.67,3.26,24.25,24.25,3.26,50.67,0ZM0,65.03c26.42,3.26,47.4,24.25,50.67,50.67C24.25,112.43,3.26,91.44,0,65.03ZM65.03,115.7c3.26-26.42,24.25-47.41,50.67-50.67-3.26,26.42-24.25,47.41-50.67,50.67Z"/>
    </g>
  </g>
</svg>