<svg viewBox="0 0 980 540" xmlns="http://www.w3.org/2000/svg" font-family="-apple-system, BlinkMacSystemFont, 'Segoe UI', system-ui, sans-serif">
  <defs>
    <style>
      .title  { font-size: 22px; font-weight: 700; fill: #1c1917; }
      .sub    { font-size: 13px; font-style: italic; fill: #57534e; }
      .name   { font-size: 14px; font-weight: 700; fill: #1c1917; }
      .role-c { font-size: 14px; }
      .pos    { font-size: 11px; fill: #78716c; font-style: italic; }
      .pill   { font-size: 11px; font-weight: 500; }
      .footer { font-size: 11px; fill: #a8a29e; }
      .head   { font-size: 13px; font-weight: 700; fill: white; }
    </style>
  </defs>

  <text x="40" y="38" class="title">Plain Coffee SL · Matriz de delegación</text>
  <text x="40" y="58" class="sub">850 empleados de oficina · 50 licencias Agent 365 RRHH · 6 personas en el equipo IT</text>

  <!-- Header -->
  <rect x="40" y="90" width="900" height="40" rx="8" fill="#1c1917"/>
  <text x="60" y="115" class="head">PERSONA</text>
  <text x="240" y="115" class="head">PUESTO</text>
  <text x="400" y="115" class="head">ROLES ASIGNADOS</text>

  <!-- ===== Eva ===== -->
  <rect x="40" y="135" width="900" height="56" rx="6" fill="#FAFAF9"/>
  <text x="60" y="160" class="name">Eva Martín</text>
  <text x="60" y="178" class="pos">CIO</text>
  <text x="240" y="160" class="role-c">Visibilidad total +</text>
  <text x="240" y="178" class="role-c">break-glass</text>

  <!-- Pills -->
  <rect x="400" y="146" width="120" height="22" rx="11" fill="#FFF7ED" stroke="#C2410C"/>
  <text x="460" y="161" text-anchor="middle" class="pill" fill="#9A3412">Global Reader</text>
  <rect x="528" y="146" width="180" height="22" rx="11" fill="#FFFBEB" stroke="#A16207" stroke-dasharray="4 2"/>
  <text x="618" y="161" text-anchor="middle" class="pill" fill="#854D0E">Global Admin (vía PIM)</text>

  <!-- ===== Luis ===== -->
  <rect x="40" y="200" width="900" height="56" rx="6" fill="white" stroke="#E7E5E4"/>
  <text x="60" y="225" class="name">Luis Ortega</text>
  <text x="60" y="243" class="pos">Admin M365 (lead)</text>
  <text x="240" y="225" class="role-c">Operación diaria</text>
  <text x="240" y="243" class="role-c">del Agent workload</text>

  <rect x="400" y="211" width="125" height="22" rx="11" fill="#FAF5FF" stroke="#9A44E5"/>
  <text x="462" y="226" text-anchor="middle" class="pill" fill="#7B2FBE">AI Administrator</text>
  <rect x="533" y="211" width="160" height="22" rx="11" fill="#EFF6FF" stroke="#0284C7"/>
  <text x="613" y="226" text-anchor="middle" class="pill" fill="#0369A1">Agent ID Administrator</text>
  <rect x="701" y="211" width="135" height="22" rx="11" fill="#FAFAF9" stroke="#57534E"/>
  <text x="769" y="226" text-anchor="middle" class="pill" fill="#44403c">Billing Administrator</text>

  <!-- ===== Marta ===== -->
  <rect x="40" y="265" width="900" height="56" rx="6" fill="#FAFAF9"/>
  <text x="60" y="290" class="name">Marta Núñez</text>
  <text x="60" y="308" class="pos">Admin M365 (backup)</text>
  <text x="240" y="290" class="role-c">Lifecycle workflows</text>
  <text x="240" y="308" class="role-c">+ backup de Luis</text>

  <rect x="400" y="276" width="125" height="22" rx="11" fill="#FAF5FF" stroke="#9A44E5"/>
  <text x="462" y="291" text-anchor="middle" class="pill" fill="#7B2FBE">AI Administrator</text>
  <rect x="533" y="276" width="190" height="22" rx="11" fill="#FAFAF9" stroke="#57534E"/>
  <text x="628" y="291" text-anchor="middle" class="pill" fill="#44403c">Lifecycle Workflows Admin</text>

  <!-- ===== Dani ===== -->
  <rect x="40" y="330" width="900" height="56" rx="6" fill="white" stroke="#E7E5E4"/>
  <text x="60" y="355" class="name">Dani López</text>
  <text x="60" y="373" class="pos">Analista seguridad</text>
  <text x="240" y="355" class="role-c">Investigar alertas</text>
  <text x="240" y="373" class="role-c">+ ver Registry</text>

  <rect x="400" y="341" width="120" height="22" rx="11" fill="#FEF2F2" stroke="#DC2626"/>
  <text x="460" y="356" text-anchor="middle" class="pill" fill="#B91C1C">Security Operator</text>
  <rect x="528" y="341" width="80" height="22" rx="11" fill="#FAF5FF" stroke="#9A44E5"/>
  <text x="568" y="356" text-anchor="middle" class="pill" fill="#7B2FBE">AI Reader</text>

  <!-- ===== Sara ===== -->
  <rect x="40" y="395" width="900" height="56" rx="6" fill="#FAFAF9"/>
  <text x="60" y="420" class="name">Sara Vidal</text>
  <text x="60" y="438" class="pos">Analista seguridad</text>
  <text x="240" y="420" class="role-c">Cobertura 24/7</text>
  <text x="240" y="438" class="role-c">+ separation</text>

  <rect x="400" y="406" width="120" height="22" rx="11" fill="#FEF2F2" stroke="#DC2626"/>
  <text x="460" y="421" text-anchor="middle" class="pill" fill="#B91C1C">Security Operator</text>
  <rect x="528" y="406" width="80" height="22" rx="11" fill="#FAF5FF" stroke="#9A44E5"/>
  <text x="568" y="421" text-anchor="middle" class="pill" fill="#7B2FBE">AI Reader</text>

  <!-- ===== Ana ===== -->
  <rect x="40" y="460" width="900" height="56" rx="6" fill="white" stroke="#E7E5E4"/>
  <text x="60" y="485" class="name">Ana Ruiz</text>
  <text x="60" y="503" class="pos">Compliance officer</text>
  <text x="240" y="485" class="role-c">DLP, IRM y</text>
  <text x="240" y="503" class="role-c">auditoría</text>

  <rect x="400" y="471" width="160" height="22" rx="11" fill="#F0FDF4" stroke="#15803D"/>
  <text x="480" y="486" text-anchor="middle" class="pill" fill="#166534">Compliance Administrator</text>
  <rect x="568" y="471" width="120" height="22" rx="11" fill="#F0FDF4" stroke="#15803D"/>
  <text x="628" y="486" text-anchor="middle" class="pill" fill="#166534">IRM Administrator</text>
  <rect x="696" y="471" width="80" height="22" rx="11" fill="#FAF5FF" stroke="#9A44E5"/>
  <text x="736" y="486" text-anchor="middle" class="pill" fill="#7B2FBE">AI Reader</text>

  <text x="490" y="535" class="footer" text-anchor="middle">Plain Vanilla Solutions — Curso Microsoft Agent 365 IT Admin · Módulo 04 · Fig. 4.3</text>
</svg>
